# Blender v2.81 (sub 16) OBJ File: 'bol_LowPoly_001 .blend'
# www.blender.org
mtllib bol_LowPoly_001 .mtl
o Sphere_cell_Sphere_cell.010
v -0.544895 0.197719 -0.108386
v -0.375330 0.105309 -0.074658
v -0.191342 0.048404 -0.038060
v -0.513280 0.197719 -0.212607
v -0.353553 0.105309 -0.146446
v -0.180240 0.048404 -0.074657
v -0.461940 0.197719 -0.308658
v -0.318189 0.105309 -0.212607
v -0.162212 0.048404 -0.108386
v -0.392847 0.197719 -0.392847
v -0.270598 0.105309 -0.270598
v -0.137950 0.048404 -0.137949
v -0.308658 0.197719 -0.461939
v -0.212607 0.105309 -0.318189
v -0.108386 0.048404 -0.162211
v -0.146446 0.105309 -0.353553
v -0.074658 0.048404 -0.180240
v -0.038060 0.048404 -0.191341
v 0.000000 0.048404 -0.195090
v -0.517078 0.239704 -0.102853
v -0.356055 0.152009 -0.070823
v -0.181355 0.098036 -0.036073
v -0.487077 0.239704 -0.201754
v -0.335396 0.152009 -0.138925
v -0.170833 0.098036 -0.070761
v -0.438358 0.239704 -0.292901
v -0.301849 0.152009 -0.201689
v -0.153745 0.098036 -0.102729
v -0.372792 0.239704 -0.372792
v -0.256701 0.152009 -0.256701
v -0.130750 0.098036 -0.130749
v -0.292901 0.239704 -0.438357
v -0.201689 0.152009 -0.301849
v -0.102729 0.098036 -0.153745
v -0.070761 0.098036 -0.170832
v -0.036074 0.098036 -0.181355
v -0.337186 0.093512 -0.067070
v -0.317622 0.093512 -0.131563
v -0.285853 0.093512 -0.191000
v -0.243098 0.093512 -0.243097
v -0.191001 0.093512 -0.285852
v -0.131563 0.093512 -0.317622
v -0.375330 0.000996 -0.074658
v -0.353553 0.000996 -0.146446
v -0.318189 0.000996 -0.212607
v -0.270598 0.000996 -0.270598
v -0.212607 0.000996 -0.318189
v -0.146446 0.000996 -0.353553
v -0.337186 0.000996 -0.067070
v -0.317622 0.000996 -0.131563
v -0.285853 0.000996 -0.191000
v -0.243098 0.000996 -0.243097
v -0.191001 0.000996 -0.285852
v -0.131563 0.000996 -0.317622
v -0.067070 0.000996 -0.337186
v 0.034096 0.046402 -0.171412
v 0.057560 0.044003 -0.138961
v 0.018016 0.048404 -0.193316
v 0.075746 0.042617 -0.113362
v 0.060566 0.090574 -0.090644
v 0.046025 0.091681 -0.111114
v 0.027264 0.093596 -0.137064
v 0.000000 0.096984 -0.174206
v 0.000000 0.080482 -0.006378
v -0.007410 0.098036 -0.184178
v 0.119392 0.041917 -0.049453
v 0.134283 0.042674 -0.026710
v 0.105380 0.041672 -0.070413
v 0.095465 0.090015 -0.039543
v 0.084261 0.089820 -0.056301
v 0.012794 0.081217 -0.005299
v 0.091194 0.041891 -0.091193
v 0.072918 0.089995 -0.072918
v 0.005835 0.080667 -0.005834
v 0.107366 0.090619 -0.021356
v 0.022936 0.082155 -0.004562
v 0.097945 0.038836 0.000000
v 0.144876 0.043557 -0.010193
v 0.139585 0.043116 -0.018450
v 0.053076 0.085097 -0.002398
v 0.111398 0.090954 -0.015064
v 0.063447 0.035510 0.007459
v 0.034563 0.032645 0.005393
v 0.021951 0.031393 0.004367
v 0.007734 0.030014 0.003204
v -0.008198 0.030012 0.001631
v -0.022285 0.031384 0.000000
v -0.007149 0.080849 -0.007148
v -0.075850 0.087459 -0.015087
v -0.182206 0.098036 -0.027437
v -0.021117 0.082103 -0.008747
v -0.193136 0.048404 -0.019844
v -0.357693 0.152009 -0.054196
v -0.000496 0.029439 0.002492
v -0.339636 0.093512 -0.042192
v -0.518794 0.239704 -0.085427
v -0.377952 0.105309 -0.048037
v -0.379730 0.000996 -0.029985
v -0.341213 0.000996 -0.026182
v -0.694546 0.322082 -0.127532
v -0.695553 0.322082 -0.117309
v -0.651256 0.351921 -0.129543
v -0.655684 0.354708 -0.119072
v -0.690403 0.319474 -0.137330
v -0.547599 0.197719 -0.080935
v 0.000000 0.054273 -0.214439
v -0.067070 0.029300 -0.337186
v -0.050173 0.000996 -0.338850
v -0.045099 0.112055 -0.226729
v -0.134464 0.148476 -0.324625
v -0.055004 0.074749 -0.276522
v -0.074802 0.000996 -0.375286
v -0.101000 0.093512 -0.326894
v -0.129921 0.105309 -0.358566
v -0.142649 0.152009 -0.333406
v -0.520797 0.321032 -0.347985
v -0.625097 0.297046 -0.258924
v -0.589647 0.330770 -0.244240
v -0.275660 0.239704 -0.447573
v -0.443621 0.321866 -0.443620
v -0.552110 0.286720 -0.368908
v -0.159537 0.123593 -0.385156
v -0.317561 0.276113 -0.475264
v -0.271914 0.197719 -0.481579
v -0.361187 0.275315 -0.540555
v -0.386615 0.298609 -0.556229
v -0.377074 0.330615 -0.511966
v -0.470293 0.287604 -0.470293
v 0.012794 0.081217 -0.005299
v 0.005835 0.080667 -0.005834
v -0.007149 0.080849 -0.007148
v -0.021117 0.082103 -0.008747
v 0.000000 0.080482 -0.006378
v 0.007734 0.030014 0.003204
v -0.000496 0.029439 0.002492
v -0.008198 0.030012 0.001631
v 0.034096 0.046402 -0.171412
v 0.057560 0.044003 -0.138961
v 0.018016 0.048404 -0.193316
v 0.075746 0.042617 -0.113362
v 0.060566 0.090574 -0.090644
v 0.046025 0.091681 -0.111114
v 0.027264 0.093596 -0.137064
v 0.000000 0.096984 -0.174206
v -0.007410 0.098036 -0.184178
v 0.119392 0.041917 -0.049453
v 0.134283 0.042674 -0.026710
v 0.105380 0.041672 -0.070413
v 0.095465 0.090015 -0.039543
v 0.084261 0.089820 -0.056301
v 0.091194 0.041891 -0.091193
v 0.072918 0.089995 -0.072918
v 0.107366 0.090619 -0.021356
v 0.022936 0.082155 -0.004562
v 0.097945 0.038836 0.000000
v 0.144876 0.043557 -0.010193
v 0.139585 0.043116 -0.018450
v 0.053076 0.085097 -0.002398
v 0.111398 0.090954 -0.015064
v 0.063447 0.035510 0.007459
v 0.034563 0.032645 0.005393
v 0.021951 0.031393 0.004367
v -0.022285 0.031384 0.000000
v -0.075850 0.087459 -0.015087
v -0.182206 0.098036 -0.027437
v -0.193136 0.048404 -0.019844
v -0.357693 0.152009 -0.054196
v -0.339636 0.093512 -0.042192
v -0.518794 0.239704 -0.085427
v -0.379730 0.000996 -0.029985
v -0.377952 0.105309 -0.048037
v -0.341213 0.000996 -0.026182
v -0.651256 0.351921 -0.129543
v -0.655684 0.354708 -0.119072
v -0.694546 0.322082 -0.127532
v -0.690403 0.319474 -0.137330
v -0.695553 0.322082 -0.117309
v -0.547599 0.197719 -0.080935
v 0.000000 0.054273 -0.214439
v -0.055004 0.074749 -0.276522
v -0.045099 0.112055 -0.226729
v -0.050173 0.000996 -0.338850
v -0.067070 0.029300 -0.337186
v -0.134464 0.148476 -0.324625
v -0.074802 0.000996 -0.375286
v -0.101000 0.093512 -0.326894
v -0.142649 0.152009 -0.333406
v -0.129921 0.105309 -0.358566
v -0.520797 0.321032 -0.347985
v -0.589647 0.330770 -0.244240
v -0.625097 0.297046 -0.258924
v -0.275660 0.239704 -0.447573
v -0.443621 0.321866 -0.443620
v -0.552110 0.286720 -0.368908
v -0.159537 0.123593 -0.385156
v -0.317561 0.276113 -0.475264
v -0.271914 0.197719 -0.481579
v -0.361187 0.275315 -0.540555
v -0.386615 0.298609 -0.556229
v -0.470293 0.287604 -0.470293
v -0.377074 0.330615 -0.511966
vt 0.422816 0.422816
vt 0.505757 0.397550
vt 0.561163 0.377609
vt 0.694618 0.283749
vt 0.699995 0.275931
vt 0.755425 0.188216
vt 0.776759 0.149751
vt 0.778361 0.140321
vt 0.783519 0.105095
vt 0.786435 0.080400
vt 0.788120 0.060844
vt 0.789003 0.043839
vt 0.789271 0.027830
vt 0.788974 0.011614
vt 0.732690 0.106431
vt 0.461763 0.000000
vt 0.644491 0.000000
vt 0.860343 0.000000
vt 0.861016 0.008057
vt 0.862166 0.030155
vt 0.862538 0.050435
vt 0.862203 0.070456
vt 0.861097 0.091722
vt 0.858986 0.116177
vt 0.855333 0.147059
vt 0.852287 0.167831
vt 0.843353 0.187129
vt 0.812191 0.243245
vt 0.783636 0.288374
vt 0.881349 0.310289
vt 0.924420 0.317176
vt 0.924418 0.352351
vt 0.765681 0.316751
vt 0.737856 0.339010
vt 0.625050 0.418271
vt 0.506967 0.460732
vt 0.471519 0.471519
vt 0.123956 0.123956
vt 0.324943 0.000000
vt 0.515983 0.000000
vt 0.306504 0.129303
vt 0.206194 0.191485
vt 0.197149 0.197149
vt 0.963401 0.494121
vt 0.568506 0.374925
vt 0.671872 0.234377
vt 0.617621 0.075659
vt 0.651685 0.075672
vt 0.699800 0.216440
vt 0.806584 0.147856
vt 0.949088 0.122018
vt 0.960853 0.119935
vt 0.971822 0.119476
vt 0.974944 0.119943
vt 0.988214 0.122047
vt 1.000000 0.123956
vt 0.998844 0.197013
vt 0.989628 0.197010
vt 0.983853 0.197828
vt 0.975733 0.199189
vt 0.930034 0.207320
vt 0.841315 0.223377
vt 0.713373 0.305439
vt 0.615182 0.438815
vt 1.000000 0.477966
vt 0.461763 0.461763
vt 0.484017 0.000000
vt 0.675057 0.000000
vt 0.662429 0.272909
vt 0.644491 0.644491
vt 1.000000 0.471519
vt 0.865540 0.379632
vt 0.729148 0.270784
vt 0.601934 0.152293
vt 0.481534 0.020892
vt 0.473305 0.010276
vt 0.466185 0.000000
vt 0.522034 0.000000
vt 0.530830 0.011346
vt 0.644410 0.135293
vt 0.764412 0.247063
vt 0.893068 0.349737
vt 1.000000 0.422816
vt 0.734375 0.000000
vt 0.750000 0.062500
vt 0.735208 0.062500
vt 0.720377 0.055990
vt 0.703125 0.000000
vt 0.717122 0.055990
vt 0.691078 0.048186
vt 0.671875 0.000000
vt 0.683921 0.048186
vt 0.660955 0.043678
vt 0.640625 0.000000
vt 0.651544 0.043678
vt 0.630296 0.041316
vt 0.609375 0.000000
vt 0.619704 0.041316
vt 0.599224 0.040603
vt 0.578125 0.000000
vt 0.588275 0.040603
vt 0.567775 0.041400
vt 0.546875 0.000000
vt 0.557225 0.041400
vt 0.535909 0.043862
vt 0.515625 0.000000
vt 0.526590 0.043862
vt 0.519449 0.045300
vt 0.512310 0.046735
vt 0.507780 0.031378
vt 0.484375 0.000000
vt 0.492219 0.031378
vt 0.483391 0.020562
vt 0.482757 0.011243
vt 0.482582 0.007170
vt 0.453125 0.000000
vt 0.454917 0.007170
vt 0.452454 0.002682
vt 0.980342 0.112043
vt 0.987801 0.112043
vt 0.968750 0.112043
vt 0.968750 0.112043
vt 0.906250 0.125000
vt 0.875000 0.125000
vt 0.875000 0.125000
vt 0.906250 0.125000
vt 0.937500 0.112043
vt 0.906250 0.112043
vt 0.906250 0.112043
vt 0.937500 0.112043
vt 0.875000 0.112043
vt 0.875000 0.112043
vt 0.015625 0.000000
vt 0.016295 0.002678
vt 0.013841 0.007139
vt 0.984375 0.000000
vt 0.986160 0.007139
vt 0.983707 0.062500
vt 0.968750 0.062500
vt 0.968750 0.187500
vt 0.968750 0.248689
vt 0.937500 0.237418
vt 0.937500 0.187500
vt 0.979893 0.125000
vt 0.976665 0.187500
vt 0.968750 0.125000
vt 0.843750 0.112043
vt 0.843750 0.112043
vt 0.953125 0.000000
vt 0.937500 0.062500
vt 0.906250 0.232228
vt 0.906250 0.187500
vt 0.921875 0.000000
vt 0.906250 0.062500
vt 0.843750 0.125000
vt 0.812500 0.125000
vt 0.781313 0.125000
vt 0.773377 0.112043
vt 0.781250 0.112043
vt 0.812500 0.112043
vt 0.987449 0.125000
vt 0.968750 0.125000
vt 0.937500 0.125000
vt 0.890625 0.000000
vt 0.875000 0.062500
vt 0.875000 0.232673
vt 0.875000 0.187500
vt 0.846743 0.238203
vt 0.843750 0.226496
vt 0.843750 0.187500
vt 0.812500 0.125000
vt 0.812500 0.137366
vt 0.805306 0.125000
vt 0.859375 0.000000
vt 0.843750 0.062500
vt 0.812500 0.112043
vt 0.828125 0.000000
vt 0.812500 0.062500
vt 0.831795 0.187500
vt 0.781250 0.112043
vt 0.796875 0.000000
vt 0.781250 0.062500
vt 0.765625 0.000000
vt 0.968750 0.187500
vt 0.937500 0.187500
vt 0.937500 0.235714
vt 0.968750 0.246912
vt 0.968750 0.125000
vt 0.937500 0.125000
vt 0.968750 0.062500
vt 0.937500 0.062500
vt 0.906250 0.187500
vt 0.906250 0.230558
vt 0.906250 0.125000
vt 0.906250 0.062500
vt 0.875000 0.125000
vt 0.875000 0.187500
vt 0.875000 0.062500
vt 0.875000 0.230999
vt 0.843750 0.187500
vt 0.843750 0.206776
vt 0.851119 0.235632
vt 0.843750 0.125000
vt 0.843750 0.062500
vt 0.814354 0.125000
vt 0.837839 0.187500
vt 0.812500 0.062500
vt 0.812500 0.120909
vt 0.781250 0.062500
vt 0.781250 0.078733
vt 0.756419 0.062500
vt 0.797690 0.112043
vt 0.843750 0.125000
vt 0.781250 0.091435
vt 0.937500 0.125000
vt 0.750000 0.068946
vt 0.548045 0.004681
vt 0.544899 0.007904
vt 0.537624 0.037001
vt 0.555606 0.034926
vt 0.976232 0.062500
vt 0.977840 0.026140
vt 0.976087 0.125000
vt 0.641234 0.002438
vt 0.639928 0.002789
vt 0.631911 0.034856
vt 0.649837 0.036848
vt 0.959660 0.026140
vt 0.951194 0.007726
vt 0.796314 0.002244
vt 0.971458 0.248387
vt 0.974045 0.187500
vt 0.733836 0.002156
vt 0.722566 0.047236
vt 0.749096 0.058883
vt 0.517601 0.007904
vt 0.513198 0.018020
vt 0.519136 0.038155
vt 0.524875 0.037001
vt 0.702564 0.002244
vt 0.692962 0.040652
vt 0.714934 0.047236
vt 0.671265 0.002438
vt 0.662663 0.036848
vt 0.682038 0.040652
vt 0.973426 0.250000
vt 0.971110 0.250000
vt 0.765086 0.002156
vt 0.750904 0.058883
vt 0.889771 0.003417
vt 0.860230 0.003417
vt 0.858678 0.002790
vt 0.576954 0.004681
vt 0.569393 0.034926
vt 0.586688 0.034254
vt 0.827515 0.002439
vt 0.609313 0.003095
vt 0.608519 0.003422
vt 0.600811 0.034254
vt 0.618089 0.034856
vt 0.923807 0.007726
vt 0.920714 0.004644
vn 0.7328 0.4666 -0.4953
vn -0.0878 0.1765 0.9804
vn -0.0968 0.1713 0.9804
vn 0.1846 0.2286 0.9559
vn -0.5296 0.7389 -0.4165
vn 0.0063 -0.9973 -0.0723
vn -0.0003 -0.9798 -0.1998
vn 0.0133 -0.9892 -0.1458
vn 0.0126 -0.9954 -0.0947
vn 0.0312 -0.9955 -0.0897
vn 0.0495 -0.9955 -0.0807
vn 0.0656 -0.9955 -0.0681
vn 0.0787 -0.9955 -0.0526
vn 0.0885 -0.9955 -0.0349
vn 0.0941 -0.9954 -0.0184
vn 0.0955 -0.9953 -0.0131
vn 0.0956 -0.9953 -0.0136
vn 0.0962 -0.9951 -0.0218
vn 0.0964 -0.9950 -0.0249
vn 0.0968 -0.1712 -0.9804
vn 0.6305 -0.7737 0.0621
vn 0.6618 -0.7468 0.0652
vn 0.7139 -0.6857 0.1420
vn 0.6142 -0.7796 0.1222
vn -0.7057 -0.5288 -0.4715
vn -0.6001 -0.5288 -0.6001
vn -0.5147 -0.6857 -0.5147
vn -0.6052 -0.6857 -0.4044
vn 0.6725 -0.6857 0.2785
vn 0.6052 -0.6857 0.4044
vn 0.5207 -0.7796 0.3479
vn 0.5785 -0.7796 0.2396
vn 0.5147 -0.6857 0.5147
vn 0.4428 -0.7796 0.4428
vn 0.0968 -0.1711 -0.9805
vn -0.0953 -0.9952 -0.0228
vn -0.1917 -0.9811 -0.0245
vn -0.1962 -0.9796 -0.0416
vn -0.5490 -0.8286 -0.1092
vn -0.6246 -0.7729 -0.1112
vn -0.5890 -0.7730 -0.2358
vn -0.5171 -0.8286 -0.2142
vn -0.8772 -0.4723 -0.0864
vn -0.5496 -0.8336 -0.0541
vn -0.8325 -0.5288 -0.1656
vn 0.4044 -0.6857 0.6052
vn 0.3479 -0.7796 0.5207
vn -0.1850 -0.9797 -0.0767
vn -0.5287 -0.7730 -0.3506
vn -0.4654 -0.8286 -0.3110
vn -0.1664 -0.9797 -0.1112
vn -0.4044 -0.6857 -0.6052
vn -0.2785 -0.6857 -0.6725
vn -0.1437 -0.8688 -0.4739
vn 0.0678 -0.7217 0.6888
vn 0.1420 -0.6857 0.7139
vn 0.2785 -0.6857 0.6725
vn -0.6617 -0.7469 -0.0652
vn -0.7139 -0.6857 -0.1420
vn -0.6725 -0.6857 -0.2785
vn -0.1414 -0.9798 -0.1415
vn -0.4464 -0.7730 -0.4508
vn -0.3958 -0.8286 -0.3958
vn -0.4036 -0.7715 -0.4918
vn -0.3933 -0.7721 -0.4992
vn -0.3110 -0.8286 -0.4654
vn -0.3248 -0.5288 -0.7841
vn -0.2121 -0.8814 -0.4221
vn -0.2724 -0.3454 -0.8980
vn -0.1111 -0.9798 -0.1663
vn 0.2396 -0.7796 0.5785
vn -0.0765 -0.9798 -0.1847
vn -0.2535 -0.8430 -0.4744
vn 0.2583 0.0000 0.9661
vn -0.0390 -0.9798 -0.1960
vn 0.5488 0.8288 0.1091
vn 0.5170 0.8288 0.2141
vn 0.5888 0.7731 0.2357
vn 0.6244 0.7731 0.1111
vn 0.3801 0.9218 0.0756
vn 0.3581 0.9218 0.1483
vn 0.1969 0.9796 0.0392
vn 0.1853 0.9796 0.0770
vn 0.4652 0.8288 0.3109
vn 0.5286 0.7732 0.3505
vn 0.3223 0.9218 0.2153
vn 0.1668 0.9796 0.1116
vn 0.2741 0.9218 0.2741
vn 0.3956 0.8288 0.3956
vn 0.1413 0.9797 0.1424
vn 0.4462 0.7732 0.4506
vn 0.3109 0.8288 0.4652
vn 0.3932 0.7722 0.4991
vn 0.4035 0.7717 0.4917
vn 0.2153 0.9218 0.3223
vn 0.1108 0.9796 0.1672
vn 0.1728 0.9304 0.3233
vn 0.2535 0.8431 0.4742
vn 0.0768 0.9796 0.1853
vn 0.1317 0.9568 0.2592
vn 0.0392 0.9796 0.1968
vn 0.0754 0.9568 0.2806
vn 0.0156 0.9872 0.1588
vn 0.1786 -0.7884 0.5887
vn -0.4715 -0.5288 -0.7057
vn -0.0755 -0.9568 -0.2809
vn -0.7841 -0.5288 -0.3248
vn -0.0160 -0.9568 -0.2902
vn -0.0804 0.9952 0.0548
vn -0.0944 0.9951 0.0269
vn -0.0964 0.9952 0.0168
vn -0.0909 0.9952 0.0363
vn 0.1927 0.9810 0.0190
vn 0.0942 0.9951 0.0280
vn 0.3782 0.9250 0.0372
vn -0.0031 0.9964 0.0842
vn -0.0631 0.9952 0.0739
vn -0.0663 0.9953 0.0709
vn -0.0504 0.9952 0.0834
vn 0.0869 0.9952 0.0454
vn 0.6330 0.7717 0.0623
vn 0.5494 0.8338 0.0541
vn -0.0146 0.9952 0.0968
vn 0.0057 0.9952 0.0978
vn -0.0978 0.9951 0.0096
vn -0.0341 0.9952 0.0914
vn -0.6331 -0.7715 -0.0623
vn 0.0646 0.9953 0.0723
vn -0.0819 0.9952 0.0536
usemtl Material.001
s off
f 127/1/1 123/2/1 119/3/1 115/4/1 110/5/1 109/6/1 65/7/1 63/8/1 62/9/1 61/10/1 60/11/1 152/12/1 70/13/1 149/14/1 75/15/1 81/16/1 78/17/1 79/18/1 67/19/1 66/20/1 68/21/1 72/22/1 59/23/1 57/24/1 56/25/1 58/26/1 106/27/1 111/28/1 113/29/1 107/30/1 108/31/1 112/32/1 114/33/1 122/34/1 124/35/1 125/36/1 126/37/1
f 161/38/2 82/39/2 80/40/2 76/41/2 71/42/2 130/43/2
f 177/44/3 105/45/3 97/46/3 98/47/3 99/48/3 95/49/3 92/50/3 87/51/3 86/52/3 94/53/3 85/54/3 84/55/3 161/56/3 130/57/3 64/58/3 131/59/3 132/60/3 89/61/3 90/62/3 93/63/3 169/64/3 174/65/3
f 81/66/4 80/67/4 82/68/4 77/69/4 78/70/4
f 126/71/5 128/72/5 121/73/5 117/74/5 104/75/5 100/76/5 177/77/5 174/78/5 102/79/5 118/80/5 116/81/5 120/82/5 127/83/5
s 1
f 135/84/6 19/85/7 139/86/8 137/87/9
f 135/88/6 137/89/9 138/90/10
f 135/91/6 138/92/10 140/93/11
f 135/94/6 140/95/11 151/96/12
f 135/97/6 151/98/12 148/99/13
f 135/100/6 148/101/13 146/102/14
f 135/103/6 146/104/14 147/105/15
f 135/106/6 147/107/15 157/108/16 156/109/16 155/110/17
f 135/111/6 155/112/17 160/113/18 83/114/18 162/115/19
f 135/116/6 162/117/19 134/118/20
f 168/119/21 172/120/22 49/121/23 37/122/24
f 8/123/25 11/124/26 46/125/27 45/126/28
f 50/127/29 51/128/30 39/129/31 38/130/32
f 51/128/30 52/131/33 40/132/34 39/129/31
f 135/133/6 136/134/35 163/135/36
f 135/136/6 163/137/36 166/138/37 3/139/38
f 1/140/39 176/141/40 191/142/41 4/143/42
f 171/144/43 178/145/44 1/140/39 2/146/45
f 52/131/33 53/147/46 41/148/47 40/132/34
f 135/149/6 3/139/38 6/150/48
f 4/143/42 191/142/41 194/151/49 7/152/50
f 135/153/6 6/150/48 9/154/51
f 45/126/28 46/125/27 47/155/52 48/156/53 185/157/54 182/158/55 55/159/56 54/160/57 53/147/46 52/131/33 51/128/30 50/127/29 49/121/23 172/120/22 170/161/58 43/162/59 44/163/60
f 135/164/6 9/154/51 12/165/61
f 7/152/50 194/151/49 200/166/62 10/167/63
f 10/167/63 200/166/62 199/168/64 198/169/65 13/170/66
f 16/171/67 195/172/68 188/173/69
f 135/174/6 12/165/61 15/175/70
f 53/147/46 54/160/57 42/176/71 41/148/47
f 135/177/6 15/175/70 17/178/72
f 13/170/66 198/169/65 197/179/73
f 183/180/74 55/159/56 182/158/55
f 135/181/6 17/178/72 18/182/75
f 188/173/69 185/157/54 48/156/53 16/171/67
f 135/183/6 18/182/75 19/85/7
f 20/184/76 23/185/77 190/186/78 173/187/79
f 21/188/80 24/189/81 23/185/77 20/184/76
f 22/190/82 25/191/83 24/189/81 21/188/80
f 23/185/77 26/192/84 189/193/85 190/186/78
f 24/189/81 27/194/86 26/192/84 23/185/77
f 25/191/83 28/195/87 27/194/86 24/189/81
f 27/194/86 30/196/88 29/197/89 26/192/84
f 28/195/87 31/198/90 30/196/88 27/194/86
f 26/192/84 29/197/89 193/199/91 189/193/85
f 29/197/89 32/200/92 196/201/93 201/202/94 193/199/91
f 30/196/88 33/203/95 32/200/92 29/197/89
f 31/198/90 34/204/96 33/203/95 30/196/88
f 33/203/95 187/205/97 192/206/98 32/200/92
f 34/204/96 35/207/99 184/208/100 187/205/97 33/203/95
f 32/200/92 192/206/98 196/201/93
f 35/207/99 36/209/101 181/210/102 184/208/100
f 36/209/101 145/211/103 181/210/102
f 183/180/74 186/212/104 42/176/71 54/160/57 55/159/56
f 3/139/38 37/122/24 38/130/32 6/150/48
f 166/138/37 168/119/21 37/122/24 3/139/38
f 6/150/48 38/130/32 39/129/31 9/154/51
f 12/165/61 40/132/34 41/148/47 15/175/70
f 8/123/25 7/152/50 10/167/63 11/124/26
f 11/124/26 10/167/63 13/170/66 14/213/105
f 17/178/72 42/176/71 186/212/104 180/214/106 18/182/75
f 5/215/107 8/123/25 45/126/28 44/163/60
f 2/146/45 1/140/39 4/143/42 5/215/107
f 14/213/105 16/171/67 48/156/53 47/155/52
f 14/213/105 47/155/52 46/125/27 11/124/26
f 9/154/51 39/129/31 40/132/34 12/165/61
f 38/130/32 37/122/24 49/121/23 50/127/29
f 5/215/107 44/163/60 43/162/59 2/146/45
f 15/175/70 41/148/47 42/176/71 17/178/72
f 19/85/7 179/216/108 139/86/8
f 18/182/75 180/214/106 179/216/108 19/85/7
f 129/217/109 154/218/110 153/219/111 69/220/112
f 165/221/113 164/222/114 22/190/82
f 167/223/115 165/221/113 22/190/82 21/188/80
f 133/224/116 74/225/117 73/226/118 141/227/119
f 164/228/114 91/229/120 25/191/83 22/190/82
f 133/230/116 36/209/101 35/207/99
f 173/187/79 103/231/121 96/232/122 20/184/76
f 5/215/107 4/143/42 7/152/50 8/123/25
f 133/233/116 143/234/123 144/235/124
f 154/236/110 158/237/125 159/238/125 153/239/111
f 133/240/116 142/241/126 143/242/123
f 133/243/116 141/244/119 142/245/126
f 178/145/44 101/246/127 175/247/127 176/141/40 1/140/39
f 14/213/105 13/170/66 197/179/73 195/172/68 16/171/67
f 133/248/116 144/249/124 145/211/103 36/209/101
f 171/144/43 2/146/45 43/162/59 170/161/58
f 88/250/128 31/198/90 28/195/87
f 88/251/128 133/252/116 34/204/96 31/198/90
f 129/253/109 69/254/112 150/255/129
f 133/256/116 35/207/99 34/204/96
f 74/257/117 129/258/109 150/259/129 73/260/118
f 96/232/122 167/223/115 21/188/80 20/184/76
f 91/261/120 88/262/128 28/195/87 25/191/83
