# Blender v2.81 (sub 16) OBJ File: 'bol_LowPoly_001 .blend'
# www.blender.org
mtllib bol_LowPoly_003 .mtl
o Sphere_cell.002_Sphere_cell.001
v 0.853554 0.646506 -0.353553
v 0.768178 0.473619 -0.318189
v 0.980785 1.029189 -0.195090
v 0.961940 0.834099 -0.191341
v 0.906128 0.646506 -0.180240
v 0.815493 0.473619 -0.162211
v 0.693520 0.322082 -0.137949
v 0.980785 0.834099 0.000000
v 0.923880 0.646506 0.000000
v 0.831470 0.473619 0.000000
v 0.707107 0.322082 0.000000
v 0.555570 0.197719 0.000000
v 0.961940 0.834099 0.191342
v 0.906128 0.646506 0.180240
v 0.815493 0.473619 0.162212
v 0.693520 0.322082 0.137950
v 0.544895 0.197719 0.108387
v 0.906127 0.834099 0.375331
v 0.853554 0.646506 0.353554
v 0.768178 0.473619 0.318190
v 0.653282 0.322082 0.270598
v 0.513280 0.197719 0.212608
v 0.768178 0.646506 0.513280
v 0.691342 0.473619 0.461940
v 0.587938 0.322082 0.392848
v 0.461940 0.197719 0.308659
v 0.653282 0.646506 0.653282
v 0.587938 0.473619 0.587938
v 0.500000 0.322082 0.500000
v 0.392848 0.197719 0.392848
v 0.810266 0.665786 -0.335623
v 0.729170 0.501625 -0.302032
v 0.931332 1.034155 -0.185253
v 0.913190 0.843925 -0.181644
v 0.860173 0.665786 -0.171099
v 0.774082 0.501625 -0.153974
v 0.658231 0.357754 -0.130930
v 0.931081 0.843925 0.000000
v 0.877025 0.665786 0.000000
v 0.789248 0.501625 0.000000
v 0.671127 0.357754 0.000000
v 0.527209 0.239704 0.000000
v 0.913190 0.843925 0.181645
v 0.860173 0.665786 0.171099
v 0.774082 0.501625 0.153975
v 0.658231 0.357754 0.130931
v 0.517079 0.239704 0.102854
v 0.860206 0.843925 0.356310
v 0.810266 0.665786 0.335623
v 0.729170 0.501625 0.302032
v 0.620040 0.357754 0.256829
v 0.487077 0.239704 0.201754
v 0.729220 0.665786 0.487249
v 0.656235 0.501625 0.438483
v 0.558022 0.357754 0.372858
v 0.438358 0.239704 0.292902
v 0.620151 0.665786 0.620151
v 0.558082 0.501625 0.558083
v 0.474558 0.357754 0.474558
v 0.372793 0.239704 0.372793
v 0.922331 0.939769 0.183463
v 0.844173 0.843925 0.386306
v 0.861408 0.857303 0.356807
v 0.971219 0.930155 0.193188
v 0.906969 0.843348 0.375679
v 0.895039 0.834099 0.396076
v 0.760521 0.789845 0.508164
v 0.632840 0.736272 0.637273
v 0.558895 0.688975 0.679481
v 0.564491 0.717765 0.686136
v 0.554446 0.665786 0.674073
v 0.799994 0.772650 0.534539
v 0.666002 0.716377 0.670130
v 0.588696 0.670844 0.715791
v 0.593742 0.696810 0.721790
v 0.584029 0.646506 0.710116
v 0.525637 0.473619 0.639067
v 0.424375 0.357754 0.515743
v 0.447088 0.322082 0.543424
v 0.498981 0.501625 0.606586
v 0.334181 0.240595 0.405880
v 0.372645 0.197489 0.248994
v 0.349462 0.222080 0.349463
v 0.352539 0.197719 0.425928
v 0.392505 0.153083 0.262264
v 0.368081 0.178998 0.368082
v 0.999355 1.029189 -0.006552
v 0.948902 1.034155 -0.006857
v 0.949235 1.030631 0.000000
v 0.999669 1.025822 0.000000
v 0.550732 0.202603 -0.109547
v 0.517329 0.239704 -0.100311
v 0.545398 0.197719 -0.103287
v 0.444996 0.138616 0.000000
v 0.430950 0.131835 0.013792
v 0.429754 0.131712 0.023615
v 0.423092 0.131339 0.084159
v 0.419804 0.182334 0.000000
v 0.401679 0.176856 0.079899
v 0.409502 0.177364 0.010113
v 0.408005 0.177211 0.022414
v 0.410168 0.138064 0.169897
v 0.389410 0.183237 0.161299
v 0.887476 1.034155 -0.329827
v 0.863656 0.843925 -0.344939
v 0.909756 0.834099 -0.363369
v 0.879031 0.737415 -0.364106
v 0.834442 0.752021 -0.345637
v 0.626280 0.357754 -0.236261
v 0.647091 0.393416 -0.268034
v 0.684617 0.363411 -0.283577
v 0.660511 0.322082 -0.246765
v 0.934414 1.029189 -0.347957
v 0.713156 0.501625 -0.331992
v 0.751308 0.473619 -0.349751
v 0.680830 0.462404 -0.324489
v 0.697506 0.482740 -0.328538
v 0.719802 0.435395 -0.342470
v 0.734715 0.453588 -0.346091
v 0.804973 0.665786 -0.345525
v 0.847974 0.646506 -0.363992
v 0.861408 0.857303 0.356807
v 0.922331 0.939769 0.183463
v 0.844173 0.843925 0.386306
v 0.906969 0.843348 0.375679
v 0.971219 0.930155 0.193188
v 0.895039 0.834099 0.396076
v 0.760521 0.789845 0.508164
v 0.558895 0.688975 0.679481
v 0.564491 0.717765 0.686136
v 0.632840 0.736272 0.637273
v 0.554446 0.665786 0.674073
v 0.799994 0.772650 0.534539
v 0.588696 0.670844 0.715791
v 0.593742 0.696810 0.721790
v 0.666002 0.716377 0.670130
v 0.584029 0.646506 0.710116
v 0.525637 0.473619 0.639067
v 0.447088 0.322082 0.543424
v 0.498981 0.501625 0.606586
v 0.424375 0.357754 0.515743
v 0.334181 0.240595 0.405880
v 0.392505 0.153083 0.262264
v 0.368081 0.178998 0.368082
v 0.349462 0.222080 0.349463
v 0.372645 0.197489 0.248994
v 0.352539 0.197719 0.425928
v 0.948902 1.034155 -0.006857
v 0.999355 1.029189 -0.006552
v 0.949235 1.030631 0.000000
v 0.999669 1.025822 0.000000
v 0.660511 0.322082 -0.246765
v 0.550732 0.202603 -0.109547
v 0.545398 0.197719 -0.103287
v 0.444996 0.138616 0.000000
v 0.430950 0.131835 0.013792
v 0.429754 0.131712 0.023615
v 0.423092 0.131339 0.084159
v 0.419804 0.182334 0.000000
v 0.517329 0.239704 -0.100311
v 0.409502 0.177364 0.010113
v 0.408005 0.177211 0.022414
v 0.401679 0.176856 0.079899
v 0.389410 0.183237 0.161299
v 0.410168 0.138064 0.169897
v 0.863656 0.843925 -0.344939
v 0.887476 1.034155 -0.329827
v 0.934414 1.029189 -0.347957
v 0.909756 0.834099 -0.363369
v 0.879031 0.737415 -0.364106
v 0.834442 0.752021 -0.345637
v 0.626280 0.357754 -0.236261
v 0.647091 0.393416 -0.268034
v 0.684617 0.363411 -0.283577
v 0.713156 0.501625 -0.331992
v 0.804973 0.665786 -0.345525
v 0.680830 0.462404 -0.324489
v 0.697506 0.482740 -0.328538
v 0.719802 0.435395 -0.342470
v 0.734715 0.453588 -0.346091
v 0.751308 0.473619 -0.349751
v 0.847974 0.646506 -0.363992
vt 1.000000 0.368524
vt 0.647352 0.000000
vt 0.681942 0.000000
vt 1.000000 0.332379
vt 1.000000 0.209745
vt 0.756531 0.000000
vt 0.805568 0.000000
vt 1.000000 0.167499
vt 0.336183 0.000000
vt 0.356759 0.035484
vt 0.538286 0.304468
vt 0.634777 0.429019
vt 0.737743 0.559800
vt 0.953089 0.797790
vt 0.944592 0.834029
vt 0.723760 0.589755
vt 0.615437 0.452179
vt 0.513715 0.320885
vt 0.322537 0.037632
vt 0.300713 0.000000
vt 1.000000 0.659960
vt 0.845891 0.554369
vt 0.753084 0.487777
vt 0.440353 0.233997
vt 0.426631 0.222329
vt 0.220843 0.026347
vt 0.194432 0.000000
vt 0.243469 0.000000
vt 0.262834 0.019320
vt 0.469503 0.215477
vt 0.772192 0.461145
vt 0.852285 0.518622
vt 1.000000 0.619847
vt 0.617291 0.003494
vt 0.749410 0.228395
vt 0.844845 0.426392
vt 0.856824 0.453812
vt 0.921349 0.663314
vt 0.949935 0.851729
vt 0.949621 0.857042
vt 0.898971 0.814756
vt 0.899304 0.809200
vt 0.872271 0.630364
vt 0.811087 0.431454
vt 0.793781 0.391814
vt 0.709785 0.217557
vt 0.581588 0.000000
vt 0.619847 0.619847
vt 1.000000 0.663817
vt 1.000000 0.699287
vt 0.659960 0.659960
vt 0.167499 0.167499
vt 0.282109 0.167222
vt 0.451514 0.173565
vt 0.641622 0.187617
vt 0.867937 0.211802
vt 1.000000 0.229962
vt 0.995463 0.268210
vt 0.874740 0.251783
vt 0.659878 0.228834
vt 0.479394 0.215500
vt 0.318566 0.209481
vt 0.209745 0.209745
vt 0.332379 0.332379
vt 1.000000 0.385124
vt 1.000000 0.418412
vt 0.368524 0.368524
vt 0.229962 0.229962
vt 0.707771 0.344639
vt 0.574379 0.391153
vt 0.950901 0.323464
vt 1.000000 0.318058
vt 1.000000 0.352648
vt 0.953216 0.357800
vt 0.595676 0.422096
vt 0.722067 0.377741
vt 0.269040 0.269040
vt 0.562500 0.312500
vt 0.562500 0.375000
vt 0.531250 0.375000
vt 0.531250 0.312500
vt 0.562500 0.405288
vt 0.560468 0.437500
vt 0.531250 0.437500
vt 0.531250 0.500000
vt 0.501050 0.500000
vt 0.500000 0.498921
vt 0.500000 0.437500
vt 0.500000 0.375000
vt 0.500000 0.312500
vt 0.531250 0.250000
vt 0.500000 0.250000
vt 0.468750 0.312500
vt 0.468750 0.250000
vt 0.500000 0.187500
vt 0.468750 0.187500
vt 0.468750 0.468273
vt 0.468750 0.437500
vt 0.468750 0.375000
vt 0.437500 0.440463
vt 0.437500 0.437500
vt 0.437500 0.375000
vt 0.437500 0.312500
vt 0.437500 0.250000
vt 0.437500 0.187500
vt 0.406250 0.312500
vt 0.406250 0.250000
vt 0.406250 0.187500
vt 0.433677 0.437500
vt 0.406250 0.417027
vt 0.406250 0.375000
vt 0.375000 0.398495
vt 0.375000 0.375000
vt 0.375000 0.312500
vt 0.375000 0.250000
vt 0.375000 0.187500
vt 0.359569 0.250000
vt 0.360038 0.187500
vt 0.374507 0.398279
vt 0.359557 0.391760
vt 0.359542 0.383109
vt 0.359542 0.375000
vt 0.359548 0.312500
vt 0.562500 0.312500
vt 0.531250 0.312500
vt 0.531250 0.375000
vt 0.562500 0.375000
vt 0.531250 0.437500
vt 0.560466 0.437500
vt 0.562500 0.405256
vt 0.500000 0.437500
vt 0.500000 0.498842
vt 0.501157 0.500000
vt 0.531250 0.500000
vt 0.500000 0.375000
vt 0.500000 0.312500
vt 0.531250 0.250000
vt 0.500000 0.250000
vt 0.468750 0.250000
vt 0.468750 0.312500
vt 0.500000 0.187500
vt 0.468750 0.187500
vt 0.468750 0.437500
vt 0.468750 0.468989
vt 0.468750 0.375000
vt 0.437500 0.437500
vt 0.437500 0.441896
vt 0.437500 0.375000
vt 0.437500 0.312500
vt 0.437500 0.250000
vt 0.437500 0.187500
vt 0.406250 0.250000
vt 0.406250 0.312500
vt 0.406250 0.187500
vt 0.431677 0.437500
vt 0.406250 0.375000
vt 0.406250 0.418526
vt 0.375000 0.375000
vt 0.375000 0.399974
vt 0.375000 0.312500
vt 0.375000 0.250000
vt 0.375000 0.187500
vt 0.359628 0.187972
vt 0.359580 0.250000
vt 0.359550 0.375000
vt 0.359551 0.383136
vt 0.359568 0.393237
vt 0.359557 0.312500
vt 0.562500 0.265492
vt 0.557395 0.250000
vt 0.556715 0.500000
vt 0.556612 0.500000
vt 0.530478 0.187500
vt 0.406250 0.157311
vt 0.437500 0.147153
vt 0.564541 0.375000
vt 0.406250 0.157414
vt 0.375000 0.174940
vt 0.562500 0.267046
vt 0.570740 0.296735
vt 0.570133 0.304239
vt 0.569361 0.312500
vt 0.468750 0.142605
vt 0.500000 0.147527
vt 0.529780 0.187500
vt 0.500000 0.146613
vt 0.496117 0.143070
vt 0.491319 0.142961
vt 0.468750 0.142709
vt 0.556885 0.250000
vt 0.564542 0.375000
vt 0.569361 0.312500
vt 0.531250 0.188789
vt 0.375000 0.174838
vt 0.491347 0.142857
vt 0.495006 0.142940
vt 0.531250 0.189955
vt 0.437500 0.147256
vt 0.360150 0.187500
vt 0.570128 0.304296
vt 0.570844 0.295462
vn -0.7722 0.0032 0.6354
vn -0.8951 -0.4309 -0.1144
vn -0.3470 0.1174 -0.9305
vn -0.5748 -0.3312 -0.7483
vn 0.0847 0.8879 0.4522
vn -0.3550 0.1061 -0.9288
vn -0.8965 -0.4312 -0.1013
vn 0.0836 0.8876 0.4531
vn -0.7717 -0.0042 0.6360
vn 0.7699 -0.5528 -0.3189
vn 0.8544 -0.3805 -0.3539
vn 0.9070 -0.3805 -0.1804
vn 0.8173 -0.5528 -0.1626
vn 0.9139 -0.2892 -0.2849
vn 0.9375 -0.2005 -0.2844
vn 0.9622 -0.1939 -0.1914
vn 0.7745 0.6135 -0.1540
vn 0.9145 0.3943 -0.0901
vn 0.9948 -0.0980 -0.0291
vn 0.9810 -0.1939 0.0000
vn 0.9247 -0.3805 0.0000
vn 0.8333 -0.5528 0.0000
vn 0.6965 -0.7040 -0.1385
vn 0.7101 -0.7040 0.0000
vn 0.8173 -0.5528 0.1626
vn 0.6965 -0.7040 0.1385
vn 0.5598 -0.8286 0.0000
vn 0.5490 -0.8286 0.1092
vn 0.9810 -0.0980 0.1672
vn 0.9622 -0.1939 0.1914
vn 0.9070 -0.3805 0.1804
vn 0.9286 -0.0980 0.3579
vn 0.9063 -0.1939 0.3754
vn 0.8544 -0.3805 0.3539
vn 0.7699 -0.5528 0.3189
vn 0.6561 -0.7040 0.2717
vn 0.5171 -0.8286 0.2142
vn 0.6929 -0.5528 0.4630
vn 0.5904 -0.7040 0.3945
vn 0.4654 -0.8286 0.3110
vn 0.8499 -0.2667 0.4543
vn 0.8064 -0.2892 0.5157
vn 0.7688 -0.3799 0.5143
vn 0.6856 -0.2888 0.6682
vn 0.6546 -0.3799 0.6536
vn 0.5893 -0.5528 0.5893
vn 0.5021 -0.7040 0.5021
vn 0.3958 -0.8286 0.3958
vn 0.4497 -0.7053 0.5480
vn 0.3739 -0.8078 0.4556
vn 0.6073 -0.2890 0.7400
vn 0.5865 -0.3811 0.7147
vn 0.5282 -0.5538 0.6436
vn -0.7698 0.5529 0.3189
vn -0.8172 0.5529 0.1625
vn -0.9069 0.3806 0.1804
vn -0.8543 0.3806 0.3539
vn -0.9622 0.1933 0.1914
vn -0.9376 0.2000 0.2844
vn -0.9138 0.2893 0.2849
vn -0.9811 0.1933 0.0000
vn -0.9949 0.0967 0.0291
vn -0.7873 0.6116 0.0775
vn -0.5953 0.7947 0.1184
vn -0.9247 0.3806 0.0000
vn -0.8332 0.5529 0.0000
vn -0.6960 0.7045 0.1387
vn -0.7100 0.7042 0.0000
vn -0.6963 0.7042 -0.1385
vn -0.8172 0.5529 -0.1625
vn -0.5595 0.8288 0.0000
vn -0.5488 0.8288 -0.1091
vn -0.9622 0.1933 -0.1914
vn -0.9811 0.0967 -0.1672
vn -0.9069 0.3806 -0.1804
vn -0.9064 0.1933 -0.3754
vn -0.9287 0.0967 -0.3580
vn -0.8543 0.3806 -0.3539
vn -0.7698 0.5529 -0.3189
vn -0.6559 0.7042 -0.2717
vn -0.5170 0.8288 -0.2141
vn -0.5903 0.7042 -0.3944
vn -0.6928 0.5529 -0.4629
vn -0.4652 0.8288 -0.3109
vn -0.8500 0.2667 -0.4543
vn -0.7688 0.3800 -0.5144
vn -0.8064 0.2892 -0.5158
vn -0.6546 0.3799 -0.6536
vn -0.6854 0.2887 -0.6684
vn -0.5892 0.5529 -0.5892
vn -0.5020 0.7042 -0.5020
vn -0.3943 0.8292 -0.3960
vn -0.3738 0.8066 -0.4579
vn -0.4495 0.7056 -0.5477
vn -0.5864 0.3813 -0.7146
vn -0.6073 0.2891 -0.7400
vn -0.5282 0.5539 -0.6436
vn -0.7342 0.6336 0.2441
vn -0.6980 0.6840 0.2117
vn 0.7737 0.5885 -0.2347
vn -0.6159 0.7653 0.1868
vn -0.5833 0.8083 0.0793
vn 0.3989 -0.8818 0.2514
vn 0.4383 -0.8819 0.1735
vn -0.8119 0.3904 0.4340
vn -0.3987 0.8820 -0.2513
vn -0.3444 0.8819 -0.3218
vn 0.7343 -0.6334 -0.2441
vn 0.6830 -0.6326 -0.3651
vn 0.7291 -0.5626 -0.3897
vn 0.4628 -0.8819 0.0898
vn 0.4712 -0.8816 0.0249
vn 0.5874 -0.8072 -0.0578
vn -0.4710 0.8818 -0.0249
vn -0.4706 0.8811 -0.0463
vn -0.4625 0.8820 -0.0897
vn 0.6985 -0.6835 -0.2119
vn 0.8120 -0.3903 -0.4340
vn -0.7290 0.5628 0.3897
vn 0.3457 -0.8818 0.3208
vn 0.4709 -0.8809 0.0464
vn 0.6295 -0.7724 -0.0844
vn -0.4381 0.8820 -0.1734
vn -0.6829 0.6327 0.3650
usemtl Material.001
s off
f 70/1/1 69/2/1 74/3/1 75/4/1
f 101/5/2 100/6/2 156/7/2 157/8/2
f 178/9/3 114/10/3 120/11/3 108/12/3 105/13/3 104/14/3 113/15/3 106/16/3 107/17/3 121/18/3 115/19/3 119/20/3
f 118/21/4 111/22/4 152/23/4 153/24/4 154/25/4 94/26/4 156/27/4 100/28/4 98/29/4 92/30/4 109/31/4 110/32/4 177/33/4
f 73/34/5 72/35/5 66/36/5 65/37/5 64/38/5 90/39/5 87/40/5 88/41/5 89/42/5 61/43/5 63/44/5 62/45/5 67/46/5 68/47/5
f 177/48/6 178/49/6 119/50/6 118/51/6
f 157/52/7 97/53/7 102/54/7 85/55/7 86/56/7 84/57/7 81/58/7 83/59/7 82/60/7 103/61/7 99/62/7 101/63/7
f 75/64/8 73/65/8 68/66/8 70/67/8
f 84/68/9 79/69/9 77/70/9 76/71/9 74/72/9 69/73/9 71/74/9 80/75/9 78/76/9 81/77/9
s 1
f 2/78/10 1/79/11 5/80/12 6/81/13
f 1/79/11 170/82/14 169/83/15 4/84/16 5/80/12
f 4/84/16 3/85/17 149/86/18 151/87/19 8/88/20
f 5/80/12 4/84/16 8/88/20 9/89/21
f 6/81/13 5/80/12 9/89/21 10/90/22
f 7/91/23 6/81/13 10/90/22 11/92/24
f 11/92/24 10/90/22 15/93/25 16/94/26
f 12/95/27 11/92/24 16/94/26 17/96/28
f 8/88/20 151/87/19 126/97/29 13/98/30
f 9/89/21 8/88/20 13/98/30 14/99/31
f 10/90/22 9/89/21 14/99/31 15/93/25
f 13/98/30 126/97/29 125/100/32 18/101/33
f 14/99/31 13/98/30 18/101/33 19/102/34
f 15/93/25 14/99/31 19/102/34 20/103/35
f 16/94/26 15/93/25 20/103/35 21/104/36
f 17/96/28 16/94/26 21/104/36 22/105/37
f 21/104/36 20/103/35 24/106/38 25/107/39
f 22/105/37 21/104/36 25/107/39 26/108/40
f 18/101/33 125/100/32 127/109/41
f 19/102/34 18/101/33 127/109/41 133/110/42 23/111/43
f 20/103/35 19/102/34 23/111/43 24/106/38
f 23/111/43 133/110/42 136/112/44 27/113/45
f 24/106/38 23/111/43 27/113/45 28/114/46
f 25/107/39 24/106/38 28/114/46 29/115/47
f 26/108/40 25/107/39 29/115/47 30/116/48
f 30/116/48 29/115/47 139/117/49 147/118/50
f 27/113/45 136/119/44 135/120/51 134/121/51 137/122/52
f 28/114/46 27/113/45 137/122/52 138/123/53
f 29/115/47 28/114/46 138/123/53 139/117/49
f 32/124/54 36/125/55 35/126/56 31/127/57
f 31/127/57 35/126/56 34/128/58 166/129/59 171/130/60
f 34/128/58 38/131/61 150/132/62 148/133/63 33/134/64
f 35/126/56 39/135/65 38/131/61 34/128/58
f 36/125/55 40/136/66 39/135/65 35/126/56
f 37/137/67 41/138/68 40/136/66 36/125/55
f 41/138/68 46/139/69 45/140/70 40/136/66
f 42/141/71 47/142/72 46/139/69 41/138/68
f 38/131/61 43/143/73 123/144/74 150/132/62
f 39/135/65 44/145/75 43/143/73 38/131/61
f 40/136/66 45/140/70 44/145/75 39/135/65
f 43/143/73 48/146/76 122/147/77 123/144/74
f 44/145/75 49/148/78 48/146/76 43/143/73
f 45/140/70 50/149/79 49/148/78 44/145/75
f 46/139/69 51/150/80 50/149/79 45/140/70
f 47/142/72 52/151/81 51/150/80 46/139/69
f 51/150/80 55/152/82 54/153/83 50/149/79
f 52/151/81 56/154/84 55/152/82 51/150/80
f 48/146/76 124/155/85 122/147/77
f 49/148/78 53/156/86 128/157/87 124/155/85 48/146/76
f 50/149/79 54/153/83 53/156/86 49/148/78
f 53/156/86 57/158/88 131/159/89 128/157/87
f 54/153/83 58/160/90 57/158/88 53/156/86
f 55/152/82 59/161/91 58/160/90 54/153/83
f 56/154/84 60/162/92 59/161/91 55/152/82
f 60/162/92 142/163/93 141/164/94 59/161/91
f 57/158/88 132/165/95 129/166/96 130/167/96 131/159/89
f 58/160/90 140/168/97 132/165/95 57/158/88
f 59/161/91 141/164/94 140/168/97 58/160/90
f 3/85/17 33/134/64 148/133/63 149/86/18
f 173/169/98 172/170/99 37/137/67 36/125/55 32/124/54
f 168/171/100 167/172/101 33/134/64 3/85/17
f 160/173/102 42/141/71 41/138/68 37/137/67
f 143/174/103 165/175/104 22/105/37 26/108/40
f 171/130/60 176/176/105 31/127/57
f 146/177/106 145/178/107 60/162/92 56/154/84
f 174/179/108 179/180/109 180/181/109 181/182/110 2/78/10
f 165/175/104 158/183/111 17/96/28 22/105/37
f 155/184/112 93/185/113 12/95/27
f 159/186/114 161/187/115 162/188/115 163/189/116 47/142/72 42/141/71
f 167/172/101 166/129/59 34/128/58 33/134/64
f 112/190/117 174/179/108 2/78/10 6/81/13 7/91/23
f 182/191/118 170/82/14 1/79/11
f 176/176/105 175/192/119 32/124/54 31/127/57
f 169/83/15 168/171/100 3/85/17 4/84/16
f 181/182/110 182/191/118 1/79/11 2/78/10
f 172/170/99 160/193/102 37/137/67
f 147/118/50 144/194/120 30/116/48
f 144/194/120 143/174/103 26/108/40 30/116/48
f 160/173/102 159/186/114 42/141/71
f 158/183/111 96/195/121 95/196/121 155/184/112 12/95/27 17/96/28
f 91/197/122 112/190/117 7/91/23
f 163/189/116 164/198/123 52/151/81 47/142/72
f 145/178/107 142/199/93 60/162/92
f 164/198/123 146/177/106 56/154/84 52/151/81
f 93/185/113 91/197/122 7/91/23 11/92/24 12/95/27
f 175/192/119 117/200/124 116/201/124 173/169/98 32/124/54
