# Blender v2.81 (sub 16) OBJ File: 'BOL8SUBSTANCE.blend'
# www.blender.org
mtllib bol colision morceau nivaut 2.mtl
o bol_piece_clision_box_Sphere.016
v 0.000002 22.483917 23.469437
v 13.556117 22.483917 20.974953
v 4.829793 22.483917 22.903366
v -4.444693 22.483917 23.031662
v -0.318271 22.483917 24.881496
v 17.251499 22.483917 17.938290
v 9.339515 22.483917 23.234375
v -4.728657 22.483917 24.459358
v 4.728660 22.483917 24.459358
v 20.236942 22.483917 14.208688
v 22.692715 22.483917 10.086422
v 24.289562 22.483917 5.518287
v 25.028587 22.483917 0.686792
v -7.068946 22.483917 23.749443
v 16.204632 22.483917 16.891424
v 8.790071 22.483917 21.907803
v 19.091206 22.483917 13.443164
v 21.308014 22.483917 9.512901
v 22.817181 22.483917 5.225429
v 23.559650 22.483917 0.686792
v -6.786515 22.483917 22.321278
v 12.761326 22.483917 19.785416
v 0.000002 20.122736 23.469437
v 13.556117 20.122736 20.974953
v 4.829793 20.122808 22.903366
v -4.444693 20.122736 23.031662
v -0.318271 20.122736 24.881496
v 17.251499 20.122736 17.938290
v 9.339515 20.122736 23.234375
v -4.728657 20.122736 24.459358
v 4.728660 20.122736 24.459358
v 20.236942 20.122736 14.208688
v 22.692715 20.122736 10.086422
v 24.289562 20.122808 5.518287
v 25.028587 20.122736 0.686792
v -7.068946 20.122736 23.749443
v 16.204632 20.122736 16.891424
v 8.790071 20.122736 21.907803
v 19.091206 20.122736 13.443164
v 21.308014 20.122736 9.512901
v 22.817181 20.122736 5.225429
v 23.559650 20.122736 0.686792
v -6.786515 20.122736 22.321278
v 12.761326 20.122736 19.785416
vt 0.514898 0.188103
vt 0.514994 0.188001
vt 0.515180 0.188144
vt 0.515084 0.188246
vt 0.514619 0.187781
vt 0.514712 0.187677
vt 0.514371 0.187362
vt 0.514487 0.187267
vt 0.514210 0.186932
vt 0.514345 0.186901
vt 0.514289 0.186472
vt 0.514152 0.186476
vt 0.514323 0.186041
vt 0.514183 0.186017
vt 0.514308 0.185575
vt 0.514432 0.185622
vt 0.514616 0.185229
vt 0.514494 0.185153
vt 0.514762 0.184773
vt 0.514867 0.184872
vt 0.515098 0.184445
vt 0.515180 0.184560
vt 0.517324 0.184589
vt 0.517509 0.184445
vt 0.517605 0.184547
vt 0.517419 0.184691
vt 0.517138 0.185014
vt 0.517045 0.184911
vt 0.516913 0.185424
vt 0.516797 0.185329
vt 0.516636 0.185759
vt 0.516770 0.185790
vt 0.516715 0.186219
vt 0.516577 0.186215
vt 0.516749 0.186650
vt 0.516609 0.186674
vt 0.516858 0.187069
vt 0.516734 0.187116
vt 0.517041 0.187462
vt 0.516919 0.187538
vt 0.517292 0.187820
vt 0.517187 0.187919
vt 0.517523 0.188246
vt 0.517605 0.188131
vt 0.256866 0.311775
vt 0.256866 0.311993
vt 0.256640 0.311993
vt 0.256640 0.311775
vt 0.256640 0.314642
vt 0.256640 0.314174
vt 0.256866 0.314174
vt 0.256866 0.314642
vt 0.256640 0.315065
vt 0.256866 0.315065
vt 0.256640 0.315284
vt 0.256866 0.315284
vt 0.256640 0.300988
vt 0.256640 0.300530
vt 0.256866 0.300530
vt 0.256866 0.300988
vt 0.256866 0.310869
vt 0.256866 0.311356
vt 0.256640 0.311356
vt 0.256640 0.310869
vt 0.256640 0.300084
vt 0.256866 0.300084
vt 0.256640 0.301452
vt 0.256866 0.301452
vt 0.256640 0.301904
vt 0.256866 0.301904
vt 0.256866 0.310417
vt 0.256640 0.310417
vt 0.256640 0.299672
vt 0.256866 0.299672
vt 0.256866 0.309994
vt 0.256640 0.309994
vt 0.256866 0.304961
vt 0.256866 0.305393
vt 0.256640 0.305393
vt 0.256640 0.304961
vt 0.256866 0.303302
vt 0.256866 0.303684
vt 0.256640 0.303684
vt 0.256640 0.303302
vt 0.256640 0.313787
vt 0.256640 0.313391
vt 0.256866 0.313391
vt 0.256866 0.313787
vt 0.256866 0.304525
vt 0.256640 0.304525
vt 0.256866 0.304095
vt 0.256640 0.304095
vt 0.256778 0.325377
vt 0.256640 0.325377
vt 0.256640 0.325150
vt 0.256778 0.325150
vt 0.256780 0.323752
vt 0.256640 0.323752
vt 0.256640 0.323525
vt 0.256780 0.323525
vn -0.1411 0.6854 0.7143
vn 0.1334 0.7298 -0.6705
vn -0.4219 0.5723 -0.7031
vn -0.6968 0.5828 0.4182
vn -0.0043 0.6875 0.7261
vn -0.0063 0.7320 -0.6812
vn 0.1239 0.6878 0.7152
vn -0.1249 0.7220 -0.6805
vn 0.2684 0.6819 0.6803
vn -0.2440 0.7356 -0.6319
vn -0.3822 0.7312 -0.5649
vn 0.4049 0.6857 0.6048
vn -0.4858 0.7273 -0.4848
vn 0.5188 0.6845 0.5122
vn 0.5933 0.6919 0.4113
vn -0.5635 0.7283 -0.3899
vn -0.6249 0.7273 -0.2836
vn 0.6600 0.6852 0.3081
vn 0.7052 0.6869 0.1756
vn -0.6648 0.7274 -0.1699
vn 0.6235 0.5698 -0.5354
vn -0.5245 0.5864 -0.6173
vn -0.1411 -0.6854 0.7143
vn -0.6968 -0.5828 0.4182
vn -0.4219 -0.5723 -0.7031
vn 0.1334 -0.7298 -0.6705
vn -0.0063 -0.7320 -0.6812
vn -0.0043 -0.6875 0.7261
vn -0.1249 -0.7219 -0.6806
vn 0.1239 -0.6878 0.7152
vn 0.2684 -0.6819 0.6803
vn -0.2440 -0.7356 -0.6319
vn -0.3822 -0.7312 -0.5649
vn 0.4049 -0.6857 0.6048
vn -0.4858 -0.7273 -0.4848
vn 0.5188 -0.6845 0.5122
vn -0.5635 -0.7283 -0.3899
vn 0.5933 -0.6919 0.4113
vn -0.6249 -0.7273 -0.2836
vn 0.6600 -0.6852 0.3081
vn -0.6647 -0.7275 -0.1699
vn 0.7052 -0.6869 0.1756
vn 0.6235 -0.5698 -0.5354
vn -0.5245 -0.5864 -0.6173
usemtl creamic
s 1
f 8/1/1 4/2/2 21/3/3 14/4/4
f 8/1/1 5/5/5 1/6/6 4/2/2
f 1/6/6 5/5/5 9/7/7 3/8/8
f 7/9/9 16/10/10 3/8/8 9/7/7
f 22/11/11 16/10/10 7/9/9 2/12/12
f 15/13/13 22/11/11 2/12/12 6/14/14
f 15/13/13 6/14/14 10/15/15 17/16/16
f 18/17/17 17/16/16 10/15/15 11/18/18
f 18/17/17 11/18/18 12/19/19 19/20/20
f 13/21/21 20/22/22 19/20/20 12/19/19
f 30/23/23 36/24/24 43/25/25 26/26/26
f 30/23/23 26/26/26 23/27/27 27/28/28
f 23/27/27 25/29/29 31/30/30 27/28/28
f 29/31/31 31/30/30 25/29/29 38/32/32
f 44/33/33 24/34/34 29/31/31 38/32/32
f 37/35/35 28/36/36 24/34/34 44/33/33
f 37/35/35 39/37/37 32/38/38 28/36/36
f 40/39/39 33/40/40 32/38/38 39/37/37
f 40/39/39 41/41/41 34/42/42 33/40/40
f 35/43/43 34/42/42 41/41/41 42/44/44
f 8/45/1 14/46/4 36/47/24 30/48/23
f 1/49/6 3/50/8 25/51/29 23/52/27
f 4/53/2 1/49/6 23/52/27 26/54/26
f 21/55/3 4/53/2 26/54/26 43/56/25
f 11/57/18 10/58/15 32/59/38 33/60/40
f 9/61/7 5/62/5 27/63/28 31/64/30
f 10/58/15 6/65/14 28/66/36 32/59/38
f 12/67/19 11/57/18 33/60/40 34/68/42
f 13/69/21 12/67/19 34/68/42 35/70/43
f 7/71/9 9/61/7 31/64/30 29/72/31
f 6/65/14 2/73/12 24/74/34 28/66/36
f 2/75/12 7/71/9 29/72/31 24/76/34
f 19/77/20 20/78/22 42/79/44 41/80/41
f 22/81/11 15/82/13 37/83/35 44/84/33
f 16/85/10 22/86/11 44/87/33 38/88/32
f 18/89/17 19/77/20 41/80/41 40/90/39
f 3/50/8 16/85/10 38/88/32 25/51/29
f 17/91/16 18/89/17 40/90/39 39/92/37
f 15/82/13 17/91/16 39/92/37 37/83/35
f 14/93/4 21/94/3 43/95/25 36/96/24
f 5/62/5 8/45/1 30/48/23 27/63/28
f 20/97/22 13/98/21 35/99/43 42/100/44
