# Blender v2.81 (sub 16) OBJ File: 'BOL8SUBSTANCE.blend'
# www.blender.org
mtllib bol colision morceau nivaut 2.mtl
o colision_Sphere.012
v 122.227821 38.265110 -33.763313
v 129.149994 38.265110 -35.848389
v 114.107193 38.265110 -29.132784
v 115.792488 38.265110 -30.442141
v 136.343170 38.265110 -36.456139
v 143.513702 38.265110 -35.734497
v 128.913071 38.265110 -37.039536
v 121.759743 38.265110 -34.893379
v 113.068459 38.265110 -29.834440
v 136.343170 38.265110 -37.667595
v 143.746902 38.265110 -36.906906
v 115.140953 38.265110 -31.417217
v 122.227821 37.455109 -33.763313
v 129.149994 37.455135 -35.848389
v 114.107193 37.455109 -29.132784
v 115.792488 37.455135 -30.442141
v 136.343170 37.455109 -36.456139
v 143.513702 37.455109 -35.734497
v 128.913071 37.455109 -37.039536
v 121.759743 37.455109 -34.893379
v 113.068459 37.455109 -29.834440
v 136.343170 37.455109 -37.667595
v 143.746902 37.455109 -36.906906
v 115.140953 37.455109 -31.417217
vt 0.367173 0.573894
vt 0.372385 0.586026
vt 0.369881 0.586965
vt 0.364464 0.574445
vt 0.364921 0.561116
vt 0.362139 0.561247
vt 0.366108 0.548137
vt 0.363347 0.547838
vt 0.370304 0.535441
vt 0.367797 0.534753
vt 0.372385 0.531916
vt 0.370295 0.530430
vt 0.367173 0.573894
vt 0.364464 0.574445
vt 0.369881 0.586965
vt 0.372385 0.586026
vt 0.364921 0.561116
vt 0.362139 0.561247
vt 0.366108 0.548137
vt 0.363347 0.547838
vt 0.370304 0.535441
vt 0.367797 0.534753
vt 0.372385 0.531916
vt 0.370295 0.530430
vn -0.0055 0.7284 0.6850
vn 0.4835 0.5826 0.6533
vn 0.6595 0.5726 -0.4870
vn 0.0066 0.6867 -0.7269
vn 0.1278 0.7313 0.6700
vn -0.1361 0.6845 -0.7161
vn 0.2570 0.7284 0.6352
vn -0.2749 0.6861 -0.6735
vn 0.3688 0.7284 0.5774
vn -0.3900 0.6886 -0.6113
vn 0.0266 0.5958 0.8027
vn -0.8267 0.5622 0.0240
vn -0.0055 -0.7284 0.6850
vn 0.0066 -0.6867 -0.7269
vn 0.6595 -0.5726 -0.4870
vn 0.4835 -0.5826 0.6533
vn 0.1278 -0.7313 0.6700
vn -0.1361 -0.6846 -0.7161
vn 0.2570 -0.7284 0.6352
vn -0.2749 -0.6861 -0.6735
vn 0.3688 -0.7284 0.5774
vn -0.3900 -0.6886 -0.6113
vn 0.0267 -0.5958 0.8027
vn -0.8267 -0.5622 0.0240
usemtl grunge_ceramic
s 1
f 5/1/1 6/2/2 11/3/3 10/4/4
f 2/5/5 5/1/1 10/4/4 7/6/6
f 1/7/7 2/5/5 7/6/6 8/8/8
f 4/9/9 1/7/7 8/8/8 12/10/10
f 3/11/11 4/9/9 12/10/10 9/12/12
f 17/13/13 22/14/14 23/15/15 18/16/16
f 14/17/17 19/18/18 22/14/14 17/13/13
f 13/19/19 20/20/20 19/18/18 14/17/17
f 16/21/21 24/22/22 20/20/20 13/19/19
f 15/23/23 21/24/24 24/22/22 16/21/21
f 5/1/1 2/5/5 14/17/17 17/13/13
f 1/7/7 4/9/9 16/21/21 13/19/19
f 6/2/2 5/1/1 17/13/13 18/16/16
f 4/9/9 3/11/11 15/23/23 16/21/21
f 2/5/5 1/7/7 13/19/19 14/17/17
f 9/12/12 12/10/10 24/22/22 21/24/24
f 8/8/8 7/6/6 19/18/18 20/20/20
f 7/6/6 10/4/4 22/14/14 19/18/18
f 12/10/10 8/8/8 20/20/20 24/22/22
f 10/4/4 11/3/3 23/15/15 22/14/14
f 11/3/3 6/2/2 18/16/16 23/15/15
f 3/11/11 9/12/12 21/24/24 15/23/23
