# Blender v2.81 (sub 16) OBJ File: 'BOL8SUBSTANCE.blend'
# www.blender.org
mtllib bol morceau nivaut 2.mtl
o Sphere.002_Sphere.011
v 136.343170 31.001678 -37.322289
v 136.343170 6.581390 -21.005175
v 141.636826 11.353664 -26.298830
v 140.502380 6.581390 -20.595531
v 146.727051 11.353664 -24.754725
v 144.501740 6.581390 -19.382336
v 151.418228 11.353664 -22.247240
v 109.813797 17.168695 -17.412209
v 113.781784 11.353664 -14.760881
v 111.274300 23.803022 -24.754713
v 113.781799 17.168695 -22.247227
v 117.156288 11.353664 -18.872728
v 121.268143 6.581390 -14.760875
v 115.433510 31.001678 -30.979376
v 116.646683 23.803022 -29.163715
v 118.616821 17.168695 -26.215223
v 121.268143 11.353664 -22.247231
v 124.498795 6.581390 -17.412205
v 121.940353 31.001678 -34.457352
v 122.776001 23.803022 -32.439903
v 124.133057 17.168695 -29.163710
v 125.959312 11.353664 -24.754715
v 128.184631 6.581390 -19.382318
v 129.000687 31.001678 -36.599075
v 129.426697 23.803022 -34.457367
v 130.118515 17.168695 -30.979376
v 131.049530 11.353664 -26.298815
v 132.183990 6.581390 -20.595510
v 136.343185 23.803022 -35.138573
v 136.343170 31.238255 -36.125481
v 136.343170 7.592330 -20.322254
v 141.467834 12.212583 -25.449108
v 140.369156 7.592330 -19.925755
v 146.395538 12.212583 -23.954336
v 144.240402 7.592330 -18.751431
v 151.349731 12.948794 -22.018782
v 110.659126 17.843052 -16.847391
v 114.502121 12.212583 -14.279576
v 112.072044 24.267275 -23.956968
v 114.500687 17.843052 -21.528339
v 117.768875 12.212583 -18.260141
v 121.751007 7.592330 -14.278006
v 116.098412 31.238255 -29.984261
v 117.273460 24.267275 -28.225641
v 119.181633 17.843052 -25.369894
v 121.749443 12.212583 -21.526892
v 124.878197 7.592330 -16.844408
v 122.398354 31.238255 -33.351616
v 123.207710 24.267275 -31.397575
v 124.522095 17.843052 -28.224443
v 126.290833 12.212583 -23.954327
v 128.445969 7.592330 -18.751413
v 129.234177 31.238255 -35.425247
v 129.646774 24.267275 -33.350853
v 130.316849 17.843052 -29.982250
v 131.218536 12.212583 -25.449093
v 132.317200 7.592330 -19.925734
v 136.343185 24.267275 -34.010391
v 147.596603 16.035975 -26.853983
v 146.029694 17.843052 -28.871979
v 137.943069 12.212583 -25.796255
v 122.227821 35.564896 -33.763313
v 152.985657 12.212583 -19.845547
v 127.493347 5.077361 -12.930565
v 148.807617 9.068225 -18.340195
v 133.385880 4.665558 -14.553102
v 141.966080 15.323800 -27.953991
v 139.576752 5.422194 -15.942064
v 111.744301 31.238255 -26.410954
v 136.343185 11.076943 -24.569609
v 110.306129 24.267275 -21.805189
v 138.927505 24.267275 -33.755859
v 113.582314 12.212583 -12.558743
v 109.836395 19.693851 -17.397127
v 129.149994 35.564896 -35.848389
v 114.107193 35.564896 -29.132784
v 124.232918 5.717015 -11.796098
v 115.792488 35.564896 -30.442141
v 130.486084 4.743956 -13.826054
v 110.544495 17.843052 -16.632925
v 132.684082 17.843052 -30.215397
v 136.343170 35.564896 -36.456139
v 142.337921 31.238255 -35.535034
v 110.967285 29.416656 -25.061735
v 136.343185 4.830807 -15.153662
v 143.395340 6.412489 -16.711267
v 117.092873 9.656266 -12.548481
v 146.622131 7.592330 -17.478367
v 136.343185 21.382660 -32.468170
v 134.317398 12.212583 -25.754303
v 143.513702 35.564896 -35.734497
v 120.222244 7.592330 -12.415189
v 143.796829 16.767519 -28.631136
v 145.855820 7.223661 -17.109333
v 139.672867 13.788104 -26.919212
v 148.119354 15.786927 -28.116060
v 112.877594 11.353664 -13.069266
v 139.174728 23.803022 -34.859703
v 108.744446 19.574818 -18.126726
v 128.913071 35.564896 -37.039536
v 121.759743 35.564896 -34.893379
v 113.068459 35.564896 -29.834440
v 123.592369 4.824473 -12.436644
v 130.051865 3.973326 -14.874395
v 109.574234 17.168695 -16.964022
v 132.667175 17.168695 -31.230394
v 136.343170 35.564896 -37.667595
v 146.502258 17.168695 -29.785910
v 136.343185 10.594376 -25.894997
v 143.880768 5.714061 -17.883194
v 136.343170 4.232172 -16.610086
v 109.993332 29.775011 -26.035690
v 116.002029 9.162235 -13.277360
v 146.506149 6.581390 -18.310957
v 136.343185 20.887384 -33.580132
v 142.156158 14.597299 -28.909658
v 143.746902 35.564896 -36.906906
v 120.067947 6.581390 -13.298436
v 137.299896 11.353664 -26.725965
v 151.967117 12.557516 -23.068712
v 153.437088 11.353664 -20.590399
v 126.970497 4.203379 -13.713043
v 115.140953 35.564896 -31.417217
v 133.149017 3.937404 -15.744009
v 149.505615 8.528385 -19.384813
v 134.552231 11.353664 -26.643797
v 139.851578 4.798321 -17.323740
v 110.406013 31.001678 -26.853422
v 142.436035 31.001678 -36.722198
v 108.588287 23.803022 -21.481802
v 139.389282 13.227132 -28.057699
v 145.951401 6.314106 -18.043200
vt 0.910610 0.898264
vt 0.893838 0.894716
vt 0.897404 0.881365
vt 0.912267 0.892060
vt 0.958110 0.912078
vt 0.945720 0.907905
vt 0.943935 0.905019
vt 0.946474 0.895516
vt 0.960545 0.902964
vt 0.937832 0.891776
vt 0.933951 0.880673
vt 0.939020 0.878463
vt 0.950317 0.884986
vt 0.963564 0.894691
vt 0.951851 0.873828
vt 0.954757 0.875929
vt 0.962036 0.882824
vt 0.965461 0.890821
vt 0.957146 0.872377
vt 0.925710 0.970617
vt 0.919578 0.971846
vt 0.907932 0.968875
vt 0.906576 0.960875
vt 0.923706 0.958799
vt 0.941992 0.965086
vt 0.940288 0.955035
vt 0.955684 0.949728
vt 0.939566 0.943767
vt 0.955117 0.940875
vt 0.892456 0.961131
vt 0.889437 0.959331
vt 0.888554 0.945553
vt 0.905632 0.946152
vt 0.922857 0.945549
vt 0.888953 0.928834
vt 0.906008 0.930403
vt 0.923195 0.931375
vt 0.939853 0.931713
vt 0.955343 0.931404
vt 0.941140 0.919337
vt 0.956353 0.921681
vt 0.890737 0.911668
vt 0.907689 0.914233
vt 0.924708 0.916823
vt 0.917961 0.900104
vt 0.925784 0.910938
vt 0.942619 0.911250
vt 0.884066 0.893087
vt 0.888426 0.876884
vt 0.879015 0.927558
vt 0.880843 0.910180
vt 0.878558 0.944528
vt 0.190357 0.901112
vt 0.188866 0.895534
vt 0.202883 0.885655
vt 0.206341 0.898593
vt 0.142685 0.913384
vt 0.140362 0.904695
vt 0.154949 0.897593
vt 0.156982 0.905200
vt 0.154164 0.909816
vt 0.151002 0.887688
vt 0.161108 0.882369
vt 0.167594 0.884146
vt 0.166269 0.889451
vt 0.163556 0.894228
vt 0.137262 0.896914
vt 0.148005 0.877939
vt 0.134753 0.892526
vt 0.137564 0.886820
vt 0.171037 0.971710
vt 0.174354 0.959757
vt 0.190748 0.962503
vt 0.189223 0.967998
vt 0.175653 0.972884
vt 0.155383 0.965799
vt 0.158204 0.955634
vt 0.142920 0.950293
vt 0.144260 0.941463
vt 0.159909 0.944395
vt 0.192977 0.947816
vt 0.209122 0.948175
vt 0.207257 0.960469
vt 0.202573 0.963436
vt 0.176359 0.946540
vt 0.193661 0.932289
vt 0.209850 0.931691
vt 0.176976 0.932567
vt 0.160434 0.932512
vt 0.144671 0.932128
vt 0.144140 0.922647
vt 0.159757 0.920444
vt 0.192777 0.916519
vt 0.208911 0.914949
vt 0.176180 0.918375
vt 0.175324 0.912928
vt 0.183013 0.902637
vt 0.158637 0.913314
vt 0.211035 0.882276
vt 0.215188 0.897740
vt 0.217898 0.914218
vt 0.218865 0.931160
vt 0.218252 0.947912
vt 0.132023 0.924569
vt 0.131616 0.917517
vt 0.544896 0.355491
vt 0.544221 0.365647
vt 0.541008 0.356847
vt 0.543967 0.374403
vt 0.539770 0.376837
vt 0.532040 0.362047
vt 0.537290 0.340897
vt 0.536805 0.341066
vt 0.133114 0.900443
vt 0.133985 0.894554
vt 0.135363 0.946822
vt 0.133820 0.938823
vt 0.132742 0.931549
vt 0.143417 0.875970
vt 0.132121 0.909653
vt 0.217610 0.952617
vt 0.160488 0.900307
vt 0.544896 0.384565
vt 0.966352 0.923233
vt 0.965437 0.930710
vt 0.878824 0.950137
vt 0.962431 0.946436
vt 0.956290 0.953303
vt 0.966632 0.915437
vt 0.939991 0.898938
vt 0.948894 0.961660
vt 0.942937 0.968131
vt 0.966295 0.897254
vt 0.966632 0.906940
vt 0.925960 0.971424
vt 0.965959 0.892313
vt 0.964368 0.938266
vt 0.536103 0.336730
vt 0.230892 0.877245
vt 0.227985 0.888222
vt 0.225587 0.886152
vt 0.228527 0.875970
vt 0.570398 0.336730
vt 0.567078 0.342892
vt 0.564538 0.343401
vt 0.568031 0.336739
vt 0.565663 0.355436
vt 0.562913 0.355785
vt 0.567051 0.362899
vt 0.564452 0.363808
vt 0.570398 0.372811
vt 0.567802 0.373868
vt 0.347853 0.551313
vt 0.346705 0.536467
vt 0.349433 0.536350
vt 0.350403 0.551966
vt 0.347455 0.530430
vt 0.350403 0.531689
vt 0.222018 0.532176
vt 0.220973 0.537502
vt 0.218067 0.536005
vt 0.218814 0.532632
vt 0.220603 0.543556
vt 0.217642 0.543257
vt 0.220505 0.550467
vt 0.217866 0.550624
vt 0.220947 0.556152
vt 0.222018 0.561686
vt 0.219580 0.562371
vt 0.158981 0.359963
vt 0.158322 0.367143
vt 0.155406 0.366012
vt 0.156181 0.359729
vt 0.158208 0.383202
vt 0.155358 0.382684
vt 0.158981 0.389750
vt 0.156260 0.389936
vt 0.367173 0.573894
vt 0.372385 0.586026
vt 0.369881 0.586965
vt 0.364464 0.574445
vt 0.364921 0.561116
vt 0.362139 0.561247
vt 0.366108 0.548137
vt 0.363347 0.547838
vt 0.370304 0.535441
vt 0.367797 0.534753
vt 0.372385 0.531916
vt 0.370295 0.530430
vt 0.218865 0.954425
vt 0.207905 0.963166
vt 0.204798 0.964852
vt 0.188765 0.972127
vt 0.153933 0.969095
vt 0.170856 0.972121
vt 0.170351 0.974140
vt 0.153137 0.970419
vt 0.176730 0.974807
vt 0.228645 0.963385
vt 0.230892 0.970830
vt 0.228564 0.972312
vt 0.226282 0.965546
vt 0.227159 0.956777
vt 0.224132 0.956828
vt 0.227110 0.948406
vt 0.224521 0.949676
vt 0.225277 0.940489
vt 0.222495 0.941407
vt 0.224203 0.933254
vt 0.221105 0.933798
vt 0.223750 0.926274
vt 0.220516 0.926281
vt 0.223875 0.919186
vt 0.220411 0.918478
vt 0.224326 0.911278
vt 0.221057 0.909994
vt 0.225547 0.901972
vt 0.222631 0.900344
vt 0.226828 0.893972
vt 0.226745 0.895996
vt 0.223847 0.895432
vt 0.223907 0.893966
vn 0.0000 -0.3805 -0.9247
vn 0.0023 -0.1848 -0.9828
vn 0.7394 -0.3406 -0.5807
vn 0.6769 -0.5825 -0.4499
vn 0.0000 -0.8286 -0.5598
vn -0.0756 -0.2092 -0.9749
vn -0.5767 -0.0638 -0.8144
vn 0.1385 -0.7040 -0.6965
vn 0.1092 -0.8286 -0.5490
vn -0.2335 -0.0340 -0.9717
vn 0.3436 0.3080 -0.8871
vn 0.7903 0.0858 -0.6066
vn 0.2717 -0.7040 -0.6561
vn 0.2142 -0.8286 -0.5171
vn 0.8259 0.1003 -0.5548
vn 0.3945 -0.7040 -0.5904
vn 0.5754 -0.8149 0.0696
vn 0.4535 -0.8901 0.0438
vn 0.9702 -0.2424 0.0069
vn -0.6929 -0.5528 -0.4630
vn -0.9655 0.0411 0.2572
vn -0.9659 0.2058 0.1569
vn -0.6539 -0.3805 -0.6539
vn -0.5893 -0.5528 -0.5893
vn -0.5904 -0.7040 -0.3945
vn -0.5021 -0.7040 -0.5021
vn -0.3958 -0.8286 -0.3958
vn -0.3945 -0.7040 -0.5904
vn -0.3110 -0.8286 -0.4654
vn -0.9502 0.3107 -0.0214
vn -0.9293 0.3601 -0.0821
vn -0.5409 -0.2042 -0.8159
vn -0.5137 -0.3805 -0.7689
vn -0.4630 -0.5528 -0.6929
vn -0.3739 -0.1972 -0.9062
vn -0.3539 -0.3805 -0.8544
vn -0.3189 -0.5528 -0.7699
vn -0.2717 -0.7040 -0.6561
vn -0.2142 -0.8286 -0.5171
vn -0.1385 -0.7040 -0.6965
vn -0.1092 -0.8286 -0.5490
vn -0.1893 -0.1917 -0.9630
vn -0.1804 -0.3805 -0.9070
vn -0.1626 -0.5528 -0.8173
vn 0.5035 -0.7512 -0.4268
vn 0.4879 -0.5845 -0.6482
vn 0.4956 -0.2908 -0.8184
vn 0.0035 0.6574 -0.7535
vn 0.7275 0.4729 -0.4970
vn -0.2898 0.6473 -0.7049
vn -0.1451 0.6499 -0.7460
vn -0.4203 0.6448 -0.6384
vn 0.0000 0.3806 0.9247
vn 0.5571 -0.1204 0.8216
vn 0.6116 -0.1231 0.7815
vn -0.0021 0.1856 0.9826
vn 0.0000 0.8287 0.5596
vn -0.1092 0.8287 0.5489
vn -0.1385 0.7042 0.6964
vn -0.4620 0.8398 0.2850
vn -0.0234 0.9272 0.3737
vn -0.2729 0.7061 0.6534
vn 0.2210 0.8536 0.4716
vn -0.0385 0.9992 0.0063
vn -0.5159 0.8565 0.0116
vn -0.4907 0.8639 0.1130
vn -0.2182 0.8271 0.5179
vn 0.1700 0.9269 0.3345
vn 0.1871 0.1453 0.9715
vn 0.2035 0.2012 0.9581
vn 0.6928 0.5528 0.4629
vn 0.5892 0.5528 0.5892
vn 0.6539 0.3806 0.6539
vn 0.2811 0.5824 0.7627
vn 0.0970 0.5163 0.8509
vn 0.5904 0.7042 0.3945
vn 0.5021 0.7042 0.5021
vn 0.3957 0.8287 0.3957
vn 0.3109 0.8287 0.4653
vn 0.3945 0.7042 0.5904
vn 0.5137 0.3806 0.7689
vn 0.5404 0.2073 0.8155
vn 0.1220 0.5290 0.8398
vn 0.1720 0.5207 0.8362
vn 0.4629 0.5528 0.6928
vn 0.3539 0.3806 0.8543
vn 0.3731 0.1987 0.9062
vn 0.3189 0.5528 0.7698
vn 0.2717 0.7042 0.6560
vn 0.2141 0.8287 0.5170
vn 0.1092 0.8287 0.5489
vn 0.1385 0.7042 0.6964
vn 0.1804 0.3806 0.9069
vn 0.1894 0.1921 0.9629
vn 0.1625 0.5528 0.8173
vn 0.6085 0.3230 0.7248
vn 0.5688 -0.0837 0.8182
vn 0.5080 0.7844 0.3558
vn 0.5779 0.5284 0.6219
vn -0.0027 0.7555 0.6551
vn 0.1237 0.7624 0.6351
vn 0.2444 0.7640 0.5971
vn 0.3507 0.7698 0.5332
vn 0.2469 -0.0047 0.9690
vn 0.2324 -0.0367 0.9719
vn 0.0331 0.3689 0.9289
vn 0.1370 0.2190 0.9661
vn 0.0542 0.2323 0.9711
vn 0.1175 0.5345 0.8369
vn 0.1563 0.1006 0.9825
vn 0.1349 0.1828 0.9738
vn 0.1634 0.1479 0.9754
vn 0.3398 0.1174 0.9331
vn 0.2903 0.0490 0.9557
vn 0.4969 0.5716 0.6530
vn 0.1980 0.0092 0.9801
vn 0.1952 0.7418 0.6416
vn -0.4617 0.8412 0.2812
vn 0.0297 -0.9995 0.0069
vn -0.0319 -0.9972 0.0671
vn -0.6942 0.6845 -0.2224
vn -0.2872 -0.8922 0.3485
vn -0.5146 -0.8302 0.2141
vn 0.1111 -0.9930 -0.0403
vn -0.4967 0.0929 -0.8629
vn -0.5268 -0.8040 0.2758
vn -0.7349 -0.5242 0.4302
vn 0.2919 -0.9538 0.0705
vn 0.1949 -0.9808 -0.0100
vn -0.9211 -0.2755 0.2750
vn 0.3504 -0.9281 0.1256
vn -0.0735 -0.9828 0.1693
usemtl creamic
s 1
f 29/1/1 1/2/2 129/3/3 98/4/4
f 2/5/5 109/6/6 119/7/7 3/8/8 4/9/9
f 3/8/8 116/10/10 108/11/11 96/12/12 5/13/13
f 4/9/9 3/8/8 5/13/13 6/14/14
f 5/13/13 96/12/12 120/15/15 7/16/16
f 6/14/14 5/13/13 7/16/16 125/17/17 114/18/18
f 7/16/16 120/15/15 121/19/19
f 8/20/20 99/21/21 130/22/22 10/23/23 11/24/24
f 9/25/25 8/20/20 11/24/24 12/26/26
f 13/27/27 12/26/26 17/28/28 18/29/29
f 10/23/23 112/30/30 128/31/31 14/32/32 15/33/33
f 11/24/24 10/23/23 15/33/33 16/34/34
f 12/26/26 11/24/24 16/34/34 17/28/28
f 15/33/33 14/32/32 19/35/35 20/36/36
f 16/34/34 15/33/33 20/36/36 21/37/37
f 17/28/28 16/34/34 21/37/37 22/38/38
f 18/29/29 17/28/28 22/38/38 23/39/39
f 23/39/39 22/38/38 27/40/40 28/41/41
f 20/36/36 19/35/35 24/42/42 25/43/43
f 21/37/37 20/36/36 25/43/43 26/44/44
f 22/38/38 21/37/37 26/44/44 27/40/40
f 25/43/43 24/42/42 1/2/2 29/1/1
f 26/44/44 25/43/43 29/1/1 115/45/45 106/46/46
f 27/40/40 26/44/44 106/46/46 126/47/47
f 28/41/41 27/40/40 126/47/47 109/6/6 2/5/5
f 1/2/2 107/48/48 117/49/49 129/3/3
f 19/35/35 101/50/50 100/51/51 24/42/42
f 14/32/32 123/52/52 101/50/50 19/35/35
f 24/42/42 100/51/51 107/48/48 1/2/2
f 58/53/53 72/54/54 83/55/55 30/56/56
f 31/57/57 33/58/58 32/59/59 61/60/60 70/61/61
f 32/59/59 34/62/62 59/63/63 60/64/64 93/65/65 67/66/66
f 33/58/58 35/67/67 34/62/62 32/59/59
f 34/62/62 36/68/68 59/63/63
f 35/67/67 88/69/69 65/70/70 36/68/68 34/62/62
f 37/71/71 40/72/72 39/73/73 71/74/74 74/75/75
f 38/76/76 41/77/77 40/72/72 37/71/71
f 42/78/78 47/79/79 46/80/80 41/77/77
f 39/73/73 44/81/81 43/82/82 69/83/83 84/84/84
f 40/72/72 45/85/85 44/81/81 39/73/73
f 41/77/77 46/80/80 45/85/85 40/72/72
f 44/81/81 49/86/86 48/87/87 43/82/82
f 45/85/85 50/88/88 49/86/86 44/81/81
f 46/80/80 51/89/89 50/88/88 45/85/85
f 47/79/79 52/90/90 51/89/89 46/80/80
f 52/90/90 57/91/91 56/92/92 51/89/89
f 49/86/86 54/93/93 53/94/94 48/87/87
f 50/88/88 55/95/95 54/93/93 49/86/86
f 51/89/89 56/92/92 55/95/95 50/88/88
f 54/93/93 58/53/53 30/56/56 53/94/94
f 55/95/95 81/96/96 89/97/97 58/53/53 54/93/93
f 56/92/92 90/98/98 81/96/96 55/95/95
f 57/91/91 31/57/57 70/61/61 90/98/98 56/92/92
f 30/56/56 83/55/55 91/99/99 82/100/100
f 48/87/87 53/94/94 75/101/101 62/102/102
f 43/82/82 48/87/87 62/102/102 78/103/103
f 53/94/94 30/56/56 82/100/100 75/101/101
f 66/104/104 85/105/105 31/57/57 57/91/91
f 73/106/106 87/107/107 38/108/76
f 87/107/107 92/109/108 42/110/78 41/111/77 38/108/76
f 89/97/97 72/54/54 58/53/53
f 80/112/109 73/106/106 38/108/76 37/113/71
f 86/114/110 94/115/111 88/69/69 35/67/67
f 77/116/112 64/117/113 47/79/79 42/78/78
f 64/117/113 79/118/114 52/90/90 47/79/79
f 65/70/70 63/119/115 36/68/68
f 84/84/84 71/74/74 39/73/73
f 85/105/105 68/120/116 33/58/58 31/57/57
f 79/118/114 66/104/104 57/91/91 52/90/90
f 76/121/117 69/83/83 43/82/82 78/103/103
f 67/66/66 95/122/118 61/60/60 32/59/59
f 92/109/108 77/123/112 42/110/78
f 68/120/116 86/114/110 35/67/67 33/58/58
f 124/124/119 104/125/120 23/39/39 28/41/41
f 128/31/31 102/126/121 123/52/52 14/32/32
f 103/127/122 118/128/123 13/27/27
f 111/129/124 124/124/119 28/41/41 2/5/5
f 119/7/7 131/130/125 116/10/10 3/8/8
f 113/131/126 97/132/127 9/25/25
f 110/133/128 127/134/129 4/9/9 6/14/14
f 118/128/123 113/131/126 9/25/25 12/26/26 13/27/27
f 105/135/130 99/21/21 8/20/20
f 98/4/4 115/45/45 29/1/1
f 97/132/127 105/135/130 8/20/20 9/25/25
f 114/18/18 132/136/131 110/133/128 6/14/14
f 122/137/132 103/127/122 13/27/27 18/29/29
f 130/22/22 112/30/30 10/23/23
f 104/125/120 122/137/132 18/29/29 23/39/39
f 121/19/19 125/17/17 7/16/16
f 127/134/129 111/129/124 2/5/5 4/9/9
f 37/113/71 74/138/75 80/112/109
f 63/139/115 65/140/70 125/141/17 121/142/19
usemtl grunge_ceramic
f 91/143/99 83/144/55 129/145/3 117/146/49
f 83/144/55 72/147/54 98/148/4 129/145/3
f 72/147/54 89/149/97 115/150/45 98/148/4
f 89/149/97 81/151/96 106/152/46 115/150/45
f 81/153/96 90/154/98 126/155/47 106/156/46
f 90/154/98 70/157/61 109/158/6 126/155/47
f 70/159/61 61/160/60 119/161/7 109/162/6
f 61/160/60 95/163/118 131/164/125 119/161/7
f 95/163/118 67/165/66 116/166/10 131/164/125
f 67/165/66 93/167/65 60/168/64 108/169/11 116/166/10
f 60/170/64 59/171/63 96/172/12 108/173/11
f 59/171/63 36/174/68 120/175/15 96/172/12
f 36/174/68 63/176/115 121/177/19 120/175/15
f 82/178/100 91/179/99 117/180/49 107/181/48
f 75/182/101 82/178/100 107/181/48 100/183/51
f 62/184/102 75/182/101 100/183/51 101/185/50
f 78/186/103 62/184/102 101/185/50 123/187/52
f 76/188/117 78/186/103 123/187/52 102/189/121
f 69/83/83 76/121/117 102/190/121 128/191/31
f 84/84/84 69/83/83 128/191/31 112/192/30
f 71/74/74 84/84/84 112/192/30 130/193/22
f 73/194/106 80/195/109 105/196/130 97/197/127
f 74/75/75 71/74/74 130/193/22 99/198/21
f 105/196/130 80/195/109 74/75/75 99/198/21
f 87/199/107 73/200/106 97/201/127 113/202/126
f 92/203/108 87/199/107 113/202/126 118/204/123
f 77/205/112 92/203/108 118/204/123 103/206/122
f 64/207/113 77/205/112 103/206/122 122/208/132
f 79/209/114 64/207/113 122/208/132 104/210/120
f 66/211/104 79/209/114 104/210/120 124/212/119
f 85/213/105 66/211/104 124/212/119 111/214/124
f 68/215/116 85/213/105 111/214/124 127/216/129
f 86/217/110 68/215/116 127/216/129 110/218/128
f 88/219/69 94/220/111 86/217/110 110/218/128 132/221/131 114/222/18
f 65/140/70 88/219/69 114/222/18 125/141/17
